<svg version="1.1" id="Layer_1" xmlns="http://www.w3.org/2000/svg" xmlns:xlink="http://www.w3.org/1999/xlink" x="0px" y="0px"
	 width="100%" viewBox="0 0 1200 1200" enable-background="new 0 0 1200 1200" xml:space="preserve">
<path fill="#FFFFFF" opacity="1.000000" stroke="none" 
	d="
M793.000000,1201.000000 
	C528.666687,1201.000000 264.833344,1201.000000 1.000000,1201.000000 
	C1.000000,801.000000 1.000000,401.000000 1.000000,1.000000 
	C401.000000,1.000000 801.000000,1.000000 1201.000000,1.000000 
	C1201.000000,401.000000 1201.000000,801.000000 1201.000000,1201.000000 
	C1065.166626,1201.000000 929.333313,1201.000000 793.000000,1201.000000 
M822.584900,283.084320 
	C805.741882,299.916809 788.951538,316.802612 772.001892,333.527069 
	C769.313049,336.180115 768.159058,338.816956 768.162720,342.644714 
	C768.264771,448.434631 768.244446,554.224731 768.244446,660.014771 
	C768.244446,661.801392 768.244507,663.588074 768.244507,665.526367 
	C793.487976,665.526367 818.192749,665.526367 842.804077,665.526367 
	C842.804077,531.383423 842.804077,397.613159 842.804077,262.735138 
	C835.739136,269.879211 829.434082,276.254883 822.584900,283.084320 
M358.802673,410.500000 
	C358.802673,495.537018 358.802673,580.574036 358.802673,665.875427 
	C375.427002,665.875427 391.236481,665.940063 407.043549,665.774231 
	C408.603424,665.757812 410.458588,664.651489 411.648529,663.503540 
	C417.882233,657.489685 423.826141,651.172852 430.122711,645.228088 
	C432.920990,642.586121 433.860748,639.769348 433.857391,635.985229 
	C433.770569,538.022278 433.775818,440.059235 433.846130,342.096222 
	C433.848419,338.891388 433.053345,336.562805 430.705414,334.237915 
	C407.979553,311.734619 385.382111,289.101654 362.743591,266.510101 
	C361.729706,265.498322 360.673340,264.529114 358.802551,262.744110 
	C358.802551,312.386566 358.802551,360.943268 358.802673,410.500000 
M666.109985,594.500000 
	C666.110046,616.489502 666.191284,638.479492 666.035278,660.467896 
	C666.007141,664.425842 666.892090,666.025085 671.247314,665.983704 
	C692.901245,665.778076 714.558105,665.895447 736.213989,665.877319 
	C737.666382,665.876099 739.118713,665.695374 740.860107,665.578735 
	C740.860107,571.010864 740.860107,476.753723 740.860107,381.854401 
	C739.702942,382.765350 739.032166,383.194733 738.479126,383.742889 
	C715.078125,406.936310 691.645630,430.098633 668.393860,453.440979 
	C666.910400,454.930145 666.209290,457.823639 666.203003,460.066864 
	C666.078369,504.544312 666.110107,549.022217 666.109985,594.500000 
M639.003479,585.896484 
	C639.141296,584.744629 639.404114,583.592102 639.398438,582.440918 
	C639.287231,559.935608 639.109009,537.430542 639.020691,514.925171 
	C638.958191,499.001251 639.008545,483.076935 639.008545,466.658417 
	C638.064880,467.342651 637.504211,467.647369 637.069458,468.078949 
	C613.361877,491.615479 589.633484,515.131409 566.051392,538.793091 
	C564.758606,540.090149 564.142212,542.608032 564.136536,544.560303 
	C564.023682,583.360168 564.043091,622.160461 564.059082,660.960632 
	C564.059692,662.546326 564.287964,664.131836 564.398926,665.570679 
	C589.561218,665.570679 614.117615,665.570679 639.005859,665.570679 
	C639.005859,639.044434 639.005859,612.905090 639.003479,585.896484 
M521.643677,539.143921 
	C525.385193,535.350220 529.405334,531.782959 532.751404,527.667786 
	C534.439392,525.591797 535.767029,522.530579 535.791077,519.901489 
	C536.016846,495.252258 535.854370,470.599701 535.999207,445.949249 
	C536.021545,442.144684 534.924500,439.386292 532.210938,436.717133 
	C509.604950,414.480560 487.118011,392.122986 464.580017,369.817169 
	C463.604156,368.851379 462.481628,368.033783 461.171204,366.931671 
	C461.171204,444.497253 461.171204,521.435303 461.171204,598.373352 
	C461.636353,598.704712 462.101501,599.036072 462.566681,599.367432 
	C482.092377,579.459656 501.618103,559.551880 521.643677,539.143921 
M536.528748,267.986389 
	C557.951477,289.278015 579.374207,310.569672 600.921448,331.985016 
	C624.088562,308.641785 646.898010,285.658997 669.854065,262.528412 
	C623.949219,262.528412 578.065552,262.528412 531.569153,262.528412 
	C533.240845,264.388580 534.634155,265.939087 536.528748,267.986389 
M484.837494,619.347473 
	C469.540009,634.570312 454.242554,649.793091 438.319550,665.638428 
	C471.995300,665.638428 504.334778,665.638428 536.753784,665.638428 
	C536.753784,633.110657 536.753784,600.930664 536.753784,568.750732 
	C536.399048,568.487122 536.044312,568.223511 535.689514,567.959900 
	C518.943237,584.952759 502.196991,601.945557 484.837494,619.347473 
M299.453125,831.010498 
	C304.009888,830.330200 308.777893,830.276794 313.075806,828.828369 
	C320.208557,826.424561 324.046844,819.851990 323.684723,812.470947 
	C323.340179,805.448486 319.836365,801.324280 312.061218,798.758423 
	C311.290497,798.504089 310.552673,798.150024 309.392273,797.675842 
	C310.430542,797.065247 311.082703,796.593933 311.801910,796.272644 
	C317.722839,793.627991 320.039642,788.743835 319.804260,782.634399 
	C319.555634,776.181519 315.829651,770.524414 309.406464,769.689941 
	C297.871002,768.191467 286.157043,768.067017 274.651917,767.376526 
	C274.651917,789.459595 274.651917,810.147034 274.651917,831.010498 
	C282.839813,831.010498 290.653259,831.010498 299.453125,831.010498 
M885.679871,831.000977 
	C889.340149,831.000977 893.000427,831.000977 897.124207,831.000977 
	C897.124207,826.604675 897.429138,822.315430 897.044067,818.089111 
	C896.600830,813.224487 898.135620,809.973938 903.139343,808.317810 
	C907.093628,815.044067 910.958740,821.798401 915.051514,828.411865 
	C915.773132,829.577942 917.391541,830.772217 918.690369,830.887451 
	C922.428589,831.218750 926.215210,831.004333 930.871704,831.004333 
	C924.245422,820.210083 918.050110,810.117859 911.787720,799.916443 
	C917.621643,793.328247 923.266785,786.953186 929.147644,780.311951 
	C916.004150,779.328247 916.021790,779.343445 908.099731,788.531677 
	C904.718384,792.453613 901.245972,796.297119 896.953247,801.150513 
	C896.953247,786.814392 896.953247,773.988770 896.953247,761.243286 
	C892.478394,761.243286 888.380554,761.243286 884.033020,761.243286 
	C884.033020,776.919617 883.959778,792.349304 884.063965,807.777832 
	C884.116089,815.501404 884.492065,823.222839 885.679871,831.000977 
M773.916626,789.637878 
	C774.812500,792.891113 775.708374,796.144409 776.626770,799.479248 
	C769.825073,800.057495 763.815186,800.123901 757.980896,801.169983 
	C749.518066,802.687195 745.270447,809.271851 746.017578,818.511536 
	C746.670776,826.589722 752.044067,831.465637 760.493103,832.030090 
	C767.894836,832.524475 772.908020,828.661499 777.119019,823.020935 
	C781.285950,832.080688 784.615051,833.310181 795.858032,830.278442 
	C795.858032,828.027405 795.858032,825.767761 795.858032,823.305664 
	C790.365967,824.376709 789.185974,821.165771 789.143311,816.985657 
	C789.078735,810.663330 789.178528,804.339294 789.113403,798.016968 
	C789.013550,788.326172 785.630554,782.825500 778.313293,780.254883 
	C769.392883,777.121094 756.970459,779.324890 752.280457,785.291748 
	C750.384827,787.703430 749.390869,790.823669 747.661133,794.269836 
	C753.167664,794.587830 757.436340,794.834290 761.611023,795.075378 
	C764.187683,787.324036 766.651428,786.115173 773.916626,789.637878 
M456.121490,808.944763 
	C456.083618,805.961060 456.284668,802.951355 455.962311,799.998657 
	C455.049652,791.639160 451.901917,784.607361 443.593414,781.041870 
	C425.943512,773.467712 409.498566,782.685974 407.525482,801.640259 
	C406.475830,811.723816 407.908112,821.525024 417.091583,827.904724 
	C433.201752,839.096558 453.389923,829.616028 456.121490,808.944763 
M847.043213,791.705017 
	C850.708923,797.002380 855.140808,791.353455 859.201233,793.258667 
	C858.298950,787.300537 855.624756,783.528687 850.496765,781.389160 
	C842.308655,777.972900 833.880310,777.978821 825.698914,781.198486 
	C820.227905,783.351562 816.927856,787.545166 816.766235,793.816711 
	C816.572449,801.334473 820.053467,805.818665 828.956970,808.507141 
	C834.030884,810.039307 839.337891,810.831909 844.347595,812.526245 
	C846.053345,813.103088 847.948730,815.253723 848.314331,816.989197 
	C848.611450,818.399719 847.164490,820.868713 845.773987,821.817871 
	C841.063293,825.033325 830.652161,822.956909 826.852722,818.508118 
	C826.302979,817.864441 825.287964,817.113953 824.579590,817.196594 
	C821.371948,817.570740 818.196960,818.226196 813.142761,819.105042 
	C816.882446,823.098755 819.093018,827.057556 822.445679,828.738770 
	C832.326111,833.693359 842.776489,833.422607 852.798523,828.901489 
	C858.195496,826.466797 861.032593,821.709839 860.834595,815.614258 
	C860.636658,809.517273 857.580322,805.202271 851.888428,803.013245 
	C848.651550,801.768372 845.265991,800.900818 841.927551,799.931763 
	C838.580872,798.960388 835.088501,798.359985 831.906555,797.014099 
	C830.572998,796.450134 829.109436,794.389404 829.101746,793.001343 
	C829.093933,791.606384 830.565002,789.330933 831.836304,788.954224 
	C836.967285,787.433838 842.283508,786.414062 847.043213,791.705017 
M378.563568,821.994690 
	C376.477936,821.994690 374.392334,821.994690 371.913513,821.994690 
	C371.913513,801.282654 371.913513,781.247070 371.913513,761.254089 
	C362.930023,761.254089 354.354736,761.254089 345.665039,761.254089 
	C345.665039,764.252136 345.665039,766.984680 345.665039,770.118408 
	C350.239594,770.118408 354.489960,770.118408 358.758240,770.118408 
	C358.758240,787.574890 358.758240,804.624817 358.758240,822.116089 
	C352.640137,822.116089 346.745422,822.116089 340.768005,822.116089 
	C340.768005,825.309387 340.768005,828.053406 340.768005,830.652588 
	C356.953125,830.652588 372.839478,830.652588 388.614777,830.652588 
	C388.614777,827.693726 388.614777,825.091003 388.614777,821.994690 
	C385.431946,821.994690 382.480011,821.994690 378.563568,821.994690 
M588.520630,823.041626 
	C587.021545,822.449829 585.533325,821.380676 584.021606,821.346558 
	C576.320068,821.172485 568.612427,821.266235 559.801575,821.266235 
	C567.480774,812.008240 574.075989,803.511292 581.286621,795.573486 
	C585.455872,790.983704 587.287537,786.278992 585.729553,780.257080 
	C572.756042,780.257080 559.691895,780.257080 546.645142,780.257080 
	C546.645142,783.418579 546.645142,786.288696 546.645142,789.756104 
	C554.671936,789.756104 562.330566,789.756104 570.949219,789.756104 
	C562.844360,799.501526 555.697754,808.632629 547.933472,817.204224 
	C544.036438,821.506409 544.021667,825.869934 544.840332,830.677856 
	C559.514709,830.677856 573.902954,830.677856 588.548645,830.677856 
	C588.548645,828.196960 588.548645,826.052856 588.520630,823.041626 
M708.872314,808.500000 
	C708.872314,798.731567 708.872314,788.963196 708.872314,778.674927 
	C715.403076,778.674927 721.454834,778.674927 727.647705,778.674927 
	C727.647705,774.901001 727.647705,771.656372 727.647705,768.204041 
	C710.361633,768.204041 693.300171,768.204041 676.251953,768.204041 
	C676.251953,771.786865 676.251953,775.141846 676.251953,779.036011 
	C682.651550,779.036011 688.684021,779.036011 695.053345,779.036011 
	C695.053345,796.630615 695.053345,813.671875 695.053345,830.703125 
	C699.818359,830.703125 704.210999,830.703125 708.872314,830.703125 
	C708.872314,823.432739 708.872314,816.466309 708.872314,808.500000 
M486.270447,803.511230 
	C486.271271,808.157715 486.004272,812.822998 486.330078,817.446594 
	C486.961670,826.409851 490.991974,830.924072 499.926788,831.650696 
	C505.661987,832.117004 511.518524,831.301208 517.296814,830.790222 
	C518.113892,830.718079 519.259521,829.195496 519.440002,828.197205 
	C519.783508,826.297729 519.539551,824.291931 519.539551,822.241028 
	C514.901611,822.502563 510.630402,822.913513 506.357239,822.935242 
	C502.309784,822.955811 499.653046,820.945801 499.611023,816.631531 
	C499.522400,807.536316 499.584076,798.439575 499.584076,788.915405 
	C505.600922,788.915405 511.351776,788.915405 517.255554,788.915405 
	C517.255554,785.731628 517.255554,782.983643 517.255554,779.891785 
	C511.187592,779.891785 505.399017,779.891785 499.253357,779.891785 
	C499.253357,775.440552 499.253357,771.334534 499.253357,767.236145 
	C496.291504,767.236145 493.700012,767.236145 491.095093,767.236145 
	C489.705597,771.550537 488.386505,775.646484 487.041931,779.821472 
	C484.153046,779.953552 481.414215,780.078735 478.865845,780.195251 
	C478.865845,783.405029 478.865845,786.123047 478.865845,788.861572 
	C481.536011,788.993652 483.803253,789.105835 486.271881,789.227905 
	C486.271881,793.892639 486.271881,798.202393 486.270447,803.511230 
M568.081299,459.392059 
	C566.853943,457.758057 565.626587,456.124023 564.399231,454.489990 
	C564.058105,454.849487 563.717041,455.209015 563.375977,455.568512 
	C563.375977,470.258636 563.375977,484.948761 563.375977,499.999603 
	C571.260864,492.332214 578.690979,485.107086 585.761047,478.232056 
	C579.851929,471.926514 574.212830,465.909119 568.081299,459.392059 
z"/>
<path fill="#40BAC2" opacity="1.000000" stroke="none" 
	d="
M822.856934,282.857422 
	C829.434082,276.254883 835.739136,269.879211 842.804077,262.735138 
	C842.804077,397.613159 842.804077,531.383423 842.804077,665.526367 
	C818.192749,665.526367 793.487976,665.526367 768.244507,665.526367 
	C768.244507,663.588074 768.244446,661.801392 768.244446,660.014771 
	C768.244446,554.224731 768.264771,448.434631 768.162720,342.644714 
	C768.159058,338.816956 769.313049,336.180115 772.001892,333.527069 
	C788.951538,316.802612 805.741882,299.916809 822.856934,282.857422 
z"/>
<path fill="#4E616F" opacity="1.000000" stroke="none" 
	d="
M358.802612,410.000000 
	C358.802551,360.943268 358.802551,312.386566 358.802551,262.744110 
	C360.673340,264.529114 361.729706,265.498322 362.743591,266.510101 
	C385.382111,289.101654 407.979553,311.734619 430.705414,334.237915 
	C433.053345,336.562805 433.848419,338.891388 433.846130,342.096222 
	C433.775818,440.059235 433.770569,538.022278 433.857391,635.985229 
	C433.860748,639.769348 432.920990,642.586121 430.122711,645.228088 
	C423.826141,651.172852 417.882233,657.489685 411.648529,663.503540 
	C410.458588,664.651489 408.603424,665.757812 407.043549,665.774231 
	C391.236481,665.940063 375.427002,665.875427 358.802673,665.875427 
	C358.802673,580.574036 358.802673,495.537018 358.802612,410.000000 
z"/>
<path fill="#66C7CE" opacity="1.000000" stroke="none" 
	d="
M666.110107,594.000000 
	C666.110107,549.022217 666.078369,504.544312 666.203003,460.066864 
	C666.209290,457.823639 666.910400,454.930145 668.393860,453.440979 
	C691.645630,430.098633 715.078125,406.936310 738.479126,383.742889 
	C739.032166,383.194733 739.702942,382.765350 740.860107,381.854401 
	C740.860107,476.753723 740.860107,571.010864 740.860107,665.578735 
	C739.118713,665.695374 737.666382,665.876099 736.213989,665.877319 
	C714.558105,665.895447 692.901245,665.778076 671.247314,665.983704 
	C666.892090,666.025085 666.007141,664.425842 666.035278,660.467896 
	C666.191284,638.479492 666.110046,616.489502 666.110107,594.000000 
z"/>
<path fill="#8CD5DA" opacity="1.000000" stroke="none" 
	d="
M639.004639,586.331177 
	C639.005859,612.905090 639.005859,639.044434 639.005859,665.570679 
	C614.117615,665.570679 589.561218,665.570679 564.398926,665.570679 
	C564.287964,664.131836 564.059692,662.546326 564.059082,660.960632 
	C564.043091,622.160461 564.023682,583.360168 564.136536,544.560303 
	C564.142212,542.608032 564.758606,540.090149 566.051392,538.793091 
	C589.633484,515.131409 613.361877,491.615479 637.069458,468.078949 
	C637.504211,467.647369 638.064880,467.342651 639.008545,466.658417 
	C639.008545,483.076935 638.958191,499.001251 639.020691,514.925171 
	C639.109009,537.430542 639.287231,559.935608 639.398438,582.440918 
	C639.404114,583.592102 639.141296,584.744629 639.004639,586.331177 
z"/>
<path fill="#707F8B" opacity="1.000000" stroke="none" 
	d="
M521.393738,539.393982 
	C501.618103,559.551880 482.092377,579.459656 462.566681,599.367432 
	C462.101501,599.036072 461.636353,598.704712 461.171204,598.373352 
	C461.171204,521.435303 461.171204,444.497253 461.171204,366.931671 
	C462.481628,368.033783 463.604156,368.851379 464.580017,369.817169 
	C487.118011,392.122986 509.604950,414.480560 532.210938,436.717133 
	C534.924500,439.386292 536.021545,442.144684 535.999207,445.949249 
	C535.854370,470.599701 536.016846,495.252258 535.791077,519.901489 
	C535.767029,522.530579 534.439392,525.591797 532.751404,527.667786 
	C529.405334,531.782959 525.385193,535.350220 521.393738,539.393982 
z"/>
<path fill="#769DA7" opacity="1.000000" stroke="none" 
	d="
M536.278137,267.737976 
	C534.634155,265.939087 533.240845,264.388580 531.569153,262.528412 
	C578.065552,262.528412 623.949219,262.528412 669.854065,262.528412 
	C646.898010,285.658997 624.088562,308.641785 600.921448,331.985016 
	C579.374207,310.569672 557.951477,289.278015 536.278137,267.737976 
z"/>
<path fill="#76949E" opacity="1.000000" stroke="none" 
	d="
M485.144104,619.142944 
	C502.196991,601.945557 518.943237,584.952759 535.689514,567.959900 
	C536.044312,568.223511 536.399048,568.487122 536.753784,568.750732 
	C536.753784,600.930664 536.753784,633.110657 536.753784,665.638428 
	C504.334778,665.638428 471.995300,665.638428 438.319550,665.638428 
	C454.242554,649.793091 469.540009,634.570312 485.144104,619.142944 
z"/>
<path fill="#060607" opacity="1.000000" stroke="none" 
	d="
M298.959900,831.010498 
	C290.653259,831.010498 282.839813,831.010498 274.651917,831.010498 
	C274.651917,810.147034 274.651917,789.459595 274.651917,767.376526 
	C286.157043,768.067017 297.871002,768.191467 309.406464,769.689941 
	C315.829651,770.524414 319.555634,776.181519 319.804260,782.634399 
	C320.039642,788.743835 317.722839,793.627991 311.801910,796.272644 
	C311.082703,796.593933 310.430542,797.065247 309.392273,797.675842 
	C310.552673,798.150024 311.290497,798.504089 312.061218,798.758423 
	C319.836365,801.324280 323.340179,805.448486 323.684723,812.470947 
	C324.046844,819.851990 320.208557,826.424561 313.075806,828.828369 
	C308.777893,830.276794 304.009888,830.330200 298.959900,831.010498 
M308.127258,817.524353 
	C311.724335,808.354065 308.512207,803.350403 298.822083,803.116821 
	C295.395813,803.034180 291.965851,803.103638 288.543640,803.103638 
	C288.543640,809.357971 288.543640,815.021667 288.543640,822.235962 
	C295.373993,820.751404 301.484344,819.423279 308.127258,817.524353 
M296.266113,793.006409 
	C296.928314,793.006226 297.592682,793.041138 298.252380,793.000244 
	C303.404999,792.681030 305.874756,790.367310 305.895508,785.860718 
	C305.916687,781.257202 303.588135,778.632751 298.606354,778.221863 
	C295.233337,777.943665 291.818848,778.168762 288.319092,778.168762 
	C288.319092,783.449280 288.319092,788.013611 288.319092,793.006470 
	C290.802582,793.006470 293.077118,793.006470 296.266113,793.006409 
z"/>
<path fill="#040404" opacity="1.000000" stroke="none" 
	d="
M885.200684,830.973145 
	C884.492065,823.222839 884.116089,815.501404 884.063965,807.777832 
	C883.959778,792.349304 884.033020,776.919617 884.033020,761.243286 
	C888.380554,761.243286 892.478394,761.243286 896.953247,761.243286 
	C896.953247,773.988770 896.953247,786.814392 896.953247,801.150513 
	C901.245972,796.297119 904.718384,792.453613 908.099731,788.531677 
	C916.021790,779.343445 916.004150,779.328247 929.147644,780.311951 
	C923.266785,786.953186 917.621643,793.328247 911.787720,799.916443 
	C918.050110,810.117859 924.245422,820.210083 930.871704,831.004333 
	C926.215210,831.004333 922.428589,831.218750 918.690369,830.887451 
	C917.391541,830.772217 915.773132,829.577942 915.051514,828.411865 
	C910.958740,821.798401 907.093628,815.044067 903.139343,808.317810 
	C898.135620,809.973938 896.600830,813.224487 897.044067,818.089111 
	C897.429138,822.315430 897.124207,826.604675 897.124207,831.000977 
	C893.000427,831.000977 889.340149,831.000977 885.200684,830.973145 
z"/>
<path fill="#060607" opacity="1.000000" stroke="none" 
	d="
M773.611328,789.344604 
	C766.651428,786.115173 764.187683,787.324036 761.611023,795.075378 
	C757.436340,794.834290 753.167664,794.587830 747.661133,794.269836 
	C749.390869,790.823669 750.384827,787.703430 752.280457,785.291748 
	C756.970459,779.324890 769.392883,777.121094 778.313293,780.254883 
	C785.630554,782.825500 789.013550,788.326172 789.113403,798.016968 
	C789.178528,804.339294 789.078735,810.663330 789.143311,816.985657 
	C789.185974,821.165771 790.365967,824.376709 795.858032,823.305664 
	C795.858032,825.767761 795.858032,828.027405 795.858032,830.278442 
	C784.615051,833.310181 781.285950,832.080688 777.119019,823.020935 
	C772.908020,828.661499 767.894836,832.524475 760.493103,832.030090 
	C752.044067,831.465637 746.670776,826.589722 746.017578,818.511536 
	C745.270447,809.271851 749.518066,802.687195 757.980896,801.169983 
	C763.815186,800.123901 769.825073,800.057495 776.626770,799.479248 
	C775.708374,796.144409 774.812500,792.891113 773.611328,789.344604 
M775.778259,812.777954 
	C775.778259,810.993347 775.778259,809.208679 775.778259,806.734802 
	C771.960205,807.116150 768.042480,806.914246 764.588318,808.082886 
	C762.630615,808.745239 760.316589,811.570374 760.164429,813.573486 
	C759.954102,816.341797 760.879761,820.052490 762.763306,821.822510 
	C764.016785,823.000427 768.386108,822.330872 770.284729,820.978088 
	C772.599121,819.328918 773.784912,816.095886 775.778259,812.777954 
z"/>
<path fill="#060607" opacity="1.000000" stroke="none" 
	d="
M456.101868,809.373169 
	C453.389923,829.616028 433.201752,839.096558 417.091583,827.904724 
	C407.908112,821.525024 406.475830,811.723816 407.525482,801.640259 
	C409.498566,782.685974 425.943512,773.467712 443.593414,781.041870 
	C451.901917,784.607361 455.049652,791.639160 455.962311,799.998657 
	C456.284668,802.951355 456.083618,805.961060 456.101868,809.373169 
M421.417328,800.181030 
	C421.629547,804.971558 421.411346,809.831177 422.166931,814.534424 
	C423.037994,819.956726 426.571991,822.830688 431.147278,822.993774 
	C436.502167,823.184631 440.640503,820.578857 441.314484,814.783997 
	C442.068817,808.298584 441.993958,801.537292 441.028931,795.083191 
	C440.117554,788.987915 434.245605,786.644653 428.341553,788.712402 
	C423.209656,790.509766 422.208954,794.762695 421.417328,800.181030 
z"/>
<path fill="#080808" opacity="1.000000" stroke="none" 
	d="
M846.869507,791.335083 
	C842.283508,786.414062 836.967285,787.433838 831.836304,788.954224 
	C830.565002,789.330933 829.093933,791.606384 829.101746,793.001343 
	C829.109436,794.389404 830.572998,796.450134 831.906555,797.014099 
	C835.088501,798.359985 838.580872,798.960388 841.927551,799.931763 
	C845.265991,800.900818 848.651550,801.768372 851.888428,803.013245 
	C857.580322,805.202271 860.636658,809.517273 860.834595,815.614258 
	C861.032593,821.709839 858.195496,826.466797 852.798523,828.901489 
	C842.776489,833.422607 832.326111,833.693359 822.445679,828.738770 
	C819.093018,827.057556 816.882446,823.098755 813.142761,819.105042 
	C818.196960,818.226196 821.371948,817.570740 824.579590,817.196594 
	C825.287964,817.113953 826.302979,817.864441 826.852722,818.508118 
	C830.652161,822.956909 841.063293,825.033325 845.773987,821.817871 
	C847.164490,820.868713 848.611450,818.399719 848.314331,816.989197 
	C847.948730,815.253723 846.053345,813.103088 844.347595,812.526245 
	C839.337891,810.831909 834.030884,810.039307 828.956970,808.507141 
	C820.053467,805.818665 816.572449,801.334473 816.766235,793.816711 
	C816.927856,787.545166 820.227905,783.351562 825.698914,781.198486 
	C833.880310,777.978821 842.308655,777.972900 850.496765,781.389160 
	C855.624756,783.528687 858.298950,787.300537 859.201233,793.258667 
	C855.140808,791.353455 850.708923,797.002380 846.869507,791.335083 
z"/>
<path fill="#040404" opacity="1.000000" stroke="none" 
	d="
M379.045837,821.994690 
	C382.480011,821.994690 385.431946,821.994690 388.614777,821.994690 
	C388.614777,825.091003 388.614777,827.693726 388.614777,830.652588 
	C372.839478,830.652588 356.953125,830.652588 340.768005,830.652588 
	C340.768005,828.053406 340.768005,825.309387 340.768005,822.116089 
	C346.745422,822.116089 352.640137,822.116089 358.758240,822.116089 
	C358.758240,804.624817 358.758240,787.574890 358.758240,770.118408 
	C354.489960,770.118408 350.239594,770.118408 345.665039,770.118408 
	C345.665039,766.984680 345.665039,764.252136 345.665039,761.254089 
	C354.354736,761.254089 362.930023,761.254089 371.913513,761.254089 
	C371.913513,781.247070 371.913513,801.282654 371.913513,821.994690 
	C374.392334,821.994690 376.477936,821.994690 379.045837,821.994690 
z"/>
<path fill="#090A0A" opacity="1.000000" stroke="none" 
	d="
M588.534668,823.475220 
	C588.548645,826.052856 588.548645,828.196960 588.548645,830.677856 
	C573.902954,830.677856 559.514709,830.677856 544.840332,830.677856 
	C544.021667,825.869934 544.036438,821.506409 547.933472,817.204224 
	C555.697754,808.632629 562.844360,799.501526 570.949219,789.756104 
	C562.330566,789.756104 554.671936,789.756104 546.645142,789.756104 
	C546.645142,786.288696 546.645142,783.418579 546.645142,780.257080 
	C559.691895,780.257080 572.756042,780.257080 585.729553,780.257080 
	C587.287537,786.278992 585.455872,790.983704 581.286621,795.573486 
	C574.075989,803.511292 567.480774,812.008240 559.801575,821.266235 
	C568.612427,821.266235 576.320068,821.172485 584.021606,821.346558 
	C585.533325,821.380676 587.021545,822.449829 588.534668,823.475220 
z"/>
<path fill="#060607" opacity="1.000000" stroke="none" 
	d="
M708.872314,808.999939 
	C708.872314,816.466309 708.872314,823.432739 708.872314,830.703125 
	C704.210999,830.703125 699.818359,830.703125 695.053345,830.703125 
	C695.053345,813.671875 695.053345,796.630615 695.053345,779.036011 
	C688.684021,779.036011 682.651550,779.036011 676.251953,779.036011 
	C676.251953,775.141846 676.251953,771.786865 676.251953,768.204041 
	C693.300171,768.204041 710.361633,768.204041 727.647705,768.204041 
	C727.647705,771.656372 727.647705,774.901001 727.647705,778.674927 
	C721.454834,778.674927 715.403076,778.674927 708.872314,778.674927 
	C708.872314,788.963196 708.872314,798.731567 708.872314,808.999939 
z"/>
<path fill="#080808" opacity="1.000000" stroke="none" 
	d="
M486.271179,803.011658 
	C486.271881,798.202393 486.271881,793.892639 486.271881,789.227905 
	C483.803253,789.105835 481.536011,788.993652 478.865845,788.861572 
	C478.865845,786.123047 478.865845,783.405029 478.865845,780.195251 
	C481.414215,780.078735 484.153046,779.953552 487.041931,779.821472 
	C488.386505,775.646484 489.705597,771.550537 491.095093,767.236145 
	C493.700012,767.236145 496.291504,767.236145 499.253357,767.236145 
	C499.253357,771.334534 499.253357,775.440552 499.253357,779.891785 
	C505.399017,779.891785 511.187592,779.891785 517.255554,779.891785 
	C517.255554,782.983643 517.255554,785.731628 517.255554,788.915405 
	C511.351776,788.915405 505.600922,788.915405 499.584076,788.915405 
	C499.584076,798.439575 499.522400,807.536316 499.611023,816.631531 
	C499.653046,820.945801 502.309784,822.955811 506.357239,822.935242 
	C510.630402,822.913513 514.901611,822.502563 519.539551,822.241028 
	C519.539551,824.291931 519.783508,826.297729 519.440002,828.197205 
	C519.259521,829.195496 518.113892,830.718079 517.296814,830.790222 
	C511.518524,831.301208 505.661987,832.117004 499.926788,831.650696 
	C490.991974,830.924072 486.961670,826.409851 486.330078,817.446594 
	C486.004272,812.822998 486.271271,808.157715 486.271179,803.011658 
z"/>
<path fill="#7E9EA8" opacity="1.000000" stroke="none" 
	d="
M568.327515,459.641907 
	C574.212830,465.909119 579.851929,471.926514 585.761047,478.232056 
	C578.690979,485.107086 571.260864,492.332214 563.375977,499.999603 
	C563.375977,484.948761 563.375977,470.258636 563.375977,455.568512 
	C563.717041,455.209015 564.058105,454.849487 564.399231,454.489990 
	C565.626587,456.124023 566.853943,457.758057 568.327515,459.641907 
z"/>
<path fill="#F4F7F8" opacity="1.000000" stroke="none" 
	d="
M307.860962,817.809753 
	C301.484344,819.423279 295.373993,820.751404 288.543640,822.235962 
	C288.543640,815.021667 288.543640,809.357971 288.543640,803.103638 
	C291.965851,803.103638 295.395813,803.034180 298.822083,803.116821 
	C308.512207,803.350403 311.724335,808.354065 307.860962,817.809753 
z"/>
<path fill="#F4F7F8" opacity="1.000000" stroke="none" 
	d="
M295.808868,793.006470 
	C293.077118,793.006470 290.802582,793.006470 288.319092,793.006470 
	C288.319092,788.013611 288.319092,783.449280 288.319092,778.168762 
	C291.818848,778.168762 295.233337,777.943665 298.606354,778.221863 
	C303.588135,778.632751 305.916687,781.257202 305.895508,785.860718 
	C305.874756,790.367310 303.404999,792.681030 298.252380,793.000244 
	C297.592682,793.041138 296.928314,793.006226 295.808868,793.006470 
z"/>
<path fill="#FAFCFC" opacity="1.000000" stroke="none" 
	d="
M775.618591,813.162964 
	C773.784912,816.095886 772.599121,819.328918 770.284729,820.978088 
	C768.386108,822.330872 764.016785,823.000427 762.763306,821.822510 
	C760.879761,820.052490 759.954102,816.341797 760.164429,813.573486 
	C760.316589,811.570374 762.630615,808.745239 764.588318,808.082886 
	C768.042480,806.914246 771.960205,807.116150 775.778259,806.734802 
	C775.778259,809.208679 775.778259,810.993347 775.618591,813.162964 
z"/>
<path fill="#FAFCFC" opacity="1.000000" stroke="none" 
	d="
M421.490417,799.754883 
	C422.208954,794.762695 423.209656,790.509766 428.341553,788.712402 
	C434.245605,786.644653 440.117554,788.987915 441.028931,795.083191 
	C441.993958,801.537292 442.068817,808.298584 441.314484,814.783997 
	C440.640503,820.578857 436.502167,823.184631 431.147278,822.993774 
	C426.571991,822.830688 423.037994,819.956726 422.166931,814.534424 
	C421.411346,809.831177 421.629547,804.971558 421.490417,799.754883 
z"/>
</svg>